<?xml version="1.0" encoding="UTF-8"?>
<!DOCTYPE svg PUBLIC "-//W3C//DTD SVG 1.1//EN" "http://www.w3.org/Graphics/SVG/1.1/DTD/svg11.dtd">
<!-- Creator: CorelDRAW 2021 (64-Bit) -->
<svg xmlns="http://www.w3.org/2000/svg" xml:space="preserve" width="1.226in" height="0.354in" version="1.1" style="shape-rendering:geometricPrecision; text-rendering:geometricPrecision; image-rendering:optimizeQuality; fill-rule:evenodd; clip-rule:evenodd"
viewBox="0 0 1226 354"
 xmlns:xlink="http://www.w3.org/1999/xlink"
 xmlns:xodm="http://www.corel.com/coreldraw/odm/2003">
 <defs>
  <style type="text/css">
   <![CDATA[
    .fil1 {fill:#373435}
    .fil0 {fill:#F39C12}
   ]]>
  </style>
 </defs>
 <g id="Layer_x0020_1">
  <metadata id="CorelCorpID_0Corel-Layer"/>
  <g id="_2140057225632">
   <path class="fil0" d="M411.22 327.09c-24.72,0 -45.76,-15.81 -53.56,-37.86l-31.23 0c8.64,38.87 43.33,67.93 84.79,67.93 41.47,0 76.15,-29.06 84.79,-67.93l-31.23 0c-7.8,22.06 -28.84,37.86 -53.56,37.86z"/>
   <path class="fil1" d="M282.63 120.24c8.17,-9.17 18.17,-13.72 30.11,-13.72 11.89,0 21.89,4.56 29.94,13.72 5.22,5.91 8.77,13.48 10.61,22.69l47.33 0c-2.83,-18.83 -10.78,-34.89 -23.89,-48.25 -16.72,-17 -38.11,-25.5 -64.28,-25.5 -16.94,0 -32.22,3.78 -45.94,11.28 -13.72,7.5 -24.33,18.33 -31.83,32.61 -5.13,9.72 -8.48,19.67 -10.1,29.86l47.41 0c1.85,-9.24 5.4,-16.81 10.63,-22.69z"/>
   <path class="fil1" d="M282.63 199.13c-6.77,-7.61 -10.72,-18.05 -11.83,-31.28l-46.96 0c1.11,15.35 4.72,28.69 10.85,40 7.5,13.89 18.44,24.39 32.78,31.56 14.39,7.17 29.5,10.78 45.33,10.78 25.61,0 46.83,-8.61 63.72,-25.83 14.94,-15.28 23.28,-34.12 24.96,-56.5l-47.04 0c-1.14,13.28 -5.07,23.71 -11.76,31.28 -8.06,9.17 -18.06,13.72 -29.94,13.72 -11.94,0 -21.94,-4.56 -30.11,-13.72z"/>
   <path class="fil1" d="M438.3 207.85c7.5,13.89 18.44,24.39 32.78,31.56 14.39,7.17 29.5,10.78 45.33,10.78 25.61,0 46.83,-8.61 63.72,-25.83 14.94,-15.28 23.28,-34.12 24.96,-56.5l-47.04 0c-1.14,13.28 -5.07,23.71 -11.76,31.28 -8.06,9.17 -18.06,13.72 -29.94,13.72 -11.94,0 -21.94,-4.56 -30.11,-13.72 -6.77,-7.61 -10.72,-18.05 -11.83,-31.28l-46.96 0c1.11,15.35 4.72,28.69 10.85,40z"/>
   <path class="fil1" d="M428.2 142.93l47.41 0c1.85,-9.24 5.4,-16.81 10.63,-22.69 8.17,-9.17 18.17,-13.72 30.11,-13.72 11.89,0 21.89,4.56 29.94,13.72 5.22,5.91 8.77,13.48 10.61,22.69l47.33 0c-2.83,-18.83 -10.78,-34.89 -23.89,-48.25 -16.72,-17 -38.11,-25.5 -64.28,-25.5 -16.94,0 -32.22,3.78 -45.94,11.28 -13.72,7.5 -24.33,18.33 -31.83,32.61 -5.13,9.72 -8.48,19.67 -10.1,29.86z"/>
   <path class="fil1" d="M182.08 214.85c7.61,-11.94 11.39,-24.78 11.39,-38.44 0,-15.06 -3.17,-27.72 -9.5,-38 -6.33,-10.28 -15.11,-18.33 -26.33,-24.28 -11.17,-5.89 -28.44,-11.67 -51.83,-17.17 -23.39,-5.56 -38.11,-10.89 -44.17,-16.06 -4.78,-4 -7.17,-8.83 -7.17,-14.5 0,-6.22 2.56,-11.17 7.61,-14.89 7.83,-5.78 18.72,-8.67 32.61,-8.67 13.44,0 23.56,2.72 30.28,8.11 6.72,5.39 11.11,14.22 13.17,26.56l48.33 -1.67c-0.78,-22.17 -8.67,-39.83 -23.78,-53.11 -15.06,-13.28 -37.56,-19.89 -67.39,-19.89 -18.33,0 -33.89,2.78 -46.83,8.33 -12.94,5.56 -22.83,13.61 -29.72,24.22 -6.83,10.61 -10.28,22.06 -10.28,34.22 0,18.94 7.28,35 21.89,48.17 10.39,9.39 28.44,17.28 54.17,23.72 20,5 32.78,8.44 38.39,10.44 8.22,2.89 14,6.33 17.28,10.28 3.28,4 4.94,8.78 4.94,14.44 0,8.78 -3.94,16.44 -11.78,23 -7.83,6.56 -19.5,9.83 -34.94,9.83 -14.61,0 -26.22,-3.67 -34.83,-11.06 -8.61,-7.39 -14.28,-18.89 -17.11,-34.61l-47 4.67c3.17,26.61 12.78,46.89 28.94,60.78 16.17,13.94 39.33,20.89 69.5,20.89 20.72,0 38.06,-2.89 51.94,-8.72 13.89,-5.78 24.61,-14.67 32.22,-26.61z"/>
   <path class="fil1" d="M631.02 159.01c0,28.72 7.11,51.06 21.28,67.11 14.22,16.06 31.28,24.06 51.22,24.06 9.78,0 19.5,-2.5 29.11,-7.44 9.61,-5 18,-12.39 25.06,-22.28l0 25.39 42.33 0 0 -238.67 -45.67 0 0 86.11c-14.11,-16.06 -30.89,-24.11 -50.22,-24.11 -21.11,0 -38.56,7.61 -52.39,22.89 -13.83,15.28 -20.72,37.61 -20.72,66.94zm85.5 55.17c-13.22,0 -23.5,-6 -30.89,-18 -5.06,-8.28 -7.61,-21.67 -7.61,-40.17 0,-17.22 3.67,-30.17 10.94,-38.83 7.33,-8.67 16.39,-13 27.22,-13 11.17,0 20.28,4.39 27.44,13.17 7.17,8.78 10.72,23.11 10.72,43.06 0,17.89 -3.67,31.28 -11.06,40.28 -7.33,9 -16.28,13.5 -26.78,13.5z"/>
   <path class="fil1" d="M831.63 160.96c0,24.06 5.72,43.94 17.11,59.72 14.39,19.67 36.67,29.5 66.72,29.5 18.94,0 34.78,-4.39 47.44,-13.11 12.61,-8.78 21.89,-21.5 27.72,-38.22l-45.67 -7.67c-2.5,8.67 -6.17,14.94 -11.06,18.83 -4.83,3.89 -10.83,5.83 -18,5.83 -10.44,0 -19.22,-3.78 -26.22,-11.33 -7.06,-7.56 -10.72,-18.11 -11.06,-31.67l114.33 0c0.67,-35.11 -6.44,-61.17 -21.28,-78.17 -14.89,-17 -35.17,-25.5 -60.83,-25.5 -22.89,0 -41.83,8.11 -56.78,24.39 -14.94,16.22 -22.44,38.72 -22.44,67.39zm116 -16.11l-68.17 0c-0.11,-12.5 3.06,-22.44 9.56,-29.72 6.5,-7.28 14.72,-10.94 24.67,-10.94 9.33,0 17.22,3.44 23.72,10.39 6.5,6.89 9.89,17 10.22,30.28z"/>
   <polygon class="fil1" points="1070.52,156.74 1008.19,245.85 1061.74,245.85 1097.19,192.24 1132.8,245.85 1188.52,245.85 1124.58,154.79 1183.19,72.85 1129.63,72.85 1097.19,120.4 1066.63,72.85 1010.85,72.85 "/>
   <polygon class="fil0" points="1192.31,73.76 1131.52,154.68 1198,246.76 1225.87,246.76 1161.92,155.71 1220.53,73.76 "/>
  </g>
 </g>
</svg>
