<?xml version="1.0" encoding="UTF-8"?>
<!DOCTYPE svg PUBLIC "-//W3C//DTD SVG 1.1//EN" "http://www.w3.org/Graphics/SVG/1.1/DTD/svg11.dtd">
<!-- Creator: CorelDRAW 2021 (64-Bit) -->
<svg xmlns="http://www.w3.org/2000/svg" xml:space="preserve" width="2.843in" height="0.668in" version="1.1" style="shape-rendering:geometricPrecision; text-rendering:geometricPrecision; image-rendering:optimizeQuality; fill-rule:evenodd; clip-rule:evenodd"
viewBox="0 0 2843 668"
 xmlns:xlink="http://www.w3.org/1999/xlink"
 xmlns:xodm="http://www.corel.com/coreldraw/odm/2003">
 <defs>
  <style type="text/css">
   <![CDATA[
    .fil3 {fill:none}
    .fil5 {fill:#4B4B4D}
    .fil2 {fill:#10AC84}
    .fil1 {fill:#34CBAD}
    .fil0 {fill:#4B4B4D;fill-rule:nonzero}
    .fil4 {fill:#CCDFF5;fill-rule:nonzero}
   ]]>
  </style>
    <clipPath id="id0">
     <rect x="68.09" y="206.27" width="219.14" height="254.08"/>
    </clipPath>
 </defs>
 <g id="Layer_x0020_1">
  <metadata id="CorelCorpID_0Corel-Layer"/>
  <g id="_2140539042272">
   <path class="fil0" d="M457.78 513.46c-2.17,-35.95 -4.76,-64.71 -7.63,-86.28 19.06,8.41 36.12,14.21 51.02,17.41 14.9,3.29 27.98,4.94 39.15,4.94 14.9,0 26.68,-2.17 35.43,-6.5 8.75,-4.33 13.17,-10.65 13.17,-19.15 0,-2.86 -0.43,-5.63 -1.3,-8.23 -0.87,-2.69 -2.43,-5.63 -4.85,-8.92 -2.43,-3.29 -5.8,-6.84 -10.22,-10.74l-48.16 -41.67c-11.26,-9.44 -19.15,-16.28 -23.56,-20.53 -9.01,-8.67 -16.11,-16.72 -21.14,-24.17 -5.02,-7.45 -8.66,-14.98 -11,-22.7 -2.34,-7.71 -3.46,-15.85 -3.46,-24.51 0,-10.31 1.82,-20.44 5.46,-30.32 3.64,-9.88 9.09,-19.15 16.46,-27.81 7.28,-8.57 16.89,-16.03 29.02,-22.26 12.04,-6.32 24.86,-10.57 38.63,-12.82 13.78,-2.34 27.89,-3.46 42.54,-3.46 28.67,0 59.85,3.29 93.64,9.87 0.43,11.69 1.04,22.35 1.73,32.05 0.69,9.7 2.34,26.77 4.85,51.11 -15.68,-6.24 -29.97,-10.57 -42.97,-12.99 -12.91,-2.43 -24.08,-3.64 -33.44,-3.64 -13.25,0 -24.34,2.43 -33.09,7.36 -8.75,4.94 -13.17,11 -13.17,18.28 0,3.38 0.69,6.67 2.08,9.87 1.3,3.2 3.9,7.02 7.62,11.35 3.72,4.24 8.67,9.01 14.81,14.21 6.15,5.11 15.76,12.82 28.93,22.95l18.36 14.47c5.46,4.42 11.35,9.7 17.67,15.94 6.24,6.33 11.69,12.48 16.28,18.54 4.68,6.15 8.14,11.69 10.65,16.8 2.43,5.02 4.33,10.14 5.46,15.33 1.21,5.2 1.82,10.74 1.82,16.63 0,15.25 -3.64,29.71 -10.92,43.49 -7.28,13.86 -17.67,25.2 -31.01,34.04 -13.43,8.92 -28.15,15.07 -44.18,18.62 -16.02,3.55 -32.92,5.37 -50.67,5.37 -27.46,0 -62.2,-3.98 -104.04,-11.95zm476.6 -69.13c-3.03,14.2 -5.72,28.15 -7.88,41.75l-5.63 31.01c-16.81,3.55 -29.89,5.89 -39.24,6.84 -9.44,0.95 -18.54,1.47 -27.37,1.47 -14.38,0 -27.2,-1.21 -38.37,-3.72 -11.18,-2.43 -20.53,-6.93 -27.98,-13.43 -7.45,-6.5 -12.56,-14.04 -15.25,-22.44 -2.69,-8.49 -4.07,-17.5 -4.07,-26.94 0,-1.73 0.09,-4.68 0.26,-9.01 0.17,-4.33 0.78,-13.94 1.73,-28.85l5.55 -87.92 -39.76 0c0.87,-11.7 1.65,-27.03 2.25,-46.09l0.78 -23.56 42.19 0c1.04,-7.8 2.34,-24.78 3.81,-50.94l43.48 -9.01c7.97,-1.56 24.95,-5.46 50.94,-11.78 -1.22,22.17 -2.08,46.08 -2.52,71.72l57.61 0c-1.39,35.08 -1.99,58.3 -1.99,69.65l-58.21 0 -3.03 63.58c-0.35,9.44 -0.52,15.51 -0.52,18.28 0,8.14 0.87,14.9 2.69,20.36 1.73,5.37 4.94,9.27 9.44,11.69 4.5,2.34 9.44,3.55 14.9,3.55 4.07,0 8.31,-0.26 12.73,-0.87 4.42,-0.61 12.22,-2.34 23.48,-5.37zm183.12 -191.27c21.05,0 41.23,3.2 60.64,9.62 19.4,6.5 35.78,15.68 49.11,27.8 13.43,12.13 23.3,26.25 29.63,42.45 6.32,16.11 9.53,33.52 9.53,52.15 0,18.11 -2.86,35.26 -8.49,51.63 -5.72,16.28 -15.33,31.62 -28.85,45.91 -13.6,14.29 -30.84,25.04 -51.71,32.14 -20.88,7.1 -43.06,10.65 -66.44,10.65 -21.48,0 -42.19,-3.12 -62.02,-9.35 -19.75,-6.32 -36.38,-15.42 -49.63,-27.46 -13.34,-12.04 -23.3,-26.42 -29.97,-43.14 -6.67,-16.72 -10.05,-34.39 -10.05,-52.76 0,-18.45 3.3,-36.12 9.79,-52.84 6.5,-16.72 16.8,-31.79 31.01,-45.13 14.12,-13.43 31.62,-23.65 52.41,-30.84 20.88,-7.19 42.53,-10.83 65.06,-10.83zm-1.73 74.84c-10.83,0 -20.53,2.78 -29.02,8.32 -8.4,5.63 -14.81,13.77 -19.14,24.43 -4.33,10.74 -6.5,22.44 -6.5,35.08 0,18.54 4.68,32.74 13.95,42.62 9.35,9.87 21.05,14.81 35.08,14.81 10.65,0 20.27,-2.86 28.76,-8.49 8.4,-5.63 14.81,-14.04 19.14,-25.04 4.33,-11.09 6.5,-22.87 6.5,-35.6 0,-10.39 -1.73,-19.83 -5.11,-28.33 -3.38,-8.4 -8.92,-15.16 -16.63,-20.18 -7.71,-5.11 -16.72,-7.63 -27.03,-7.63zm187.54 190.75l4.5 -54.66 9.79 -189.88 2.77 -102.13c23.48,0.35 41.15,0.52 53.02,0.52 15.42,0 32.4,-0.17 51.02,-0.52l-5.72 77.96 -9.27 192.05 -1.99 76.66c-18.19,-0.17 -34.48,-0.26 -49.03,-0.26l-55.09 0.26zm412.94 -76.4c-2.17,10.13 -6.32,34.56 -12.47,73.28 -19.67,3.98 -36.21,6.58 -49.64,7.88 -13.43,1.3 -26.94,1.99 -40.71,1.99 -20.19,0 -38.81,-1.39 -55.7,-4.16 -16.98,-2.77 -31.62,-7.8 -43.92,-14.9 -12.3,-7.02 -22.61,-15.85 -30.93,-26.42 -8.31,-10.57 -14.64,-23.13 -18.97,-37.68 -4.33,-14.56 -6.5,-29.54 -6.5,-44.87 0,-21.65 4.33,-42.88 13,-63.58 8.57,-20.7 19.75,-36.9 33.35,-48.51 13.69,-11.69 29.37,-20.01 47.12,-24.86 17.76,-4.94 36.04,-7.37 54.66,-7.37 19.23,0 37.68,2.25 55.18,6.76 17.59,4.42 32.4,12.3 44.61,23.39 12.21,11.18 20.87,23.74 26.07,37.77 5.11,14.04 7.71,29.19 7.71,45.39 0,9.7 -1.04,20.35 -3.12,32.22l-178.53 0.26c-0.17,2.69 -0.26,5.11 -0.26,7.36 0,18.19 6.59,31.62 19.67,40.28 13.08,8.57 29.02,12.91 47.9,12.91 11.18,0 24,-1.3 38.37,-3.9 14.3,-2.6 32.05,-7.02 53.1,-13.25zm-156.79 -82.12l84.03 0c0.17,-2.86 0.26,-5.28 0.26,-7.36 0,-8.75 -1.56,-16.28 -4.68,-22.52 -3.2,-6.24 -7.71,-10.74 -13.52,-13.6 -5.89,-2.86 -12.47,-4.33 -19.75,-4.33 -5.11,0 -9.96,0.78 -14.73,2.43 -4.76,1.56 -9.09,3.98 -12.91,7.1 -3.81,3.12 -7.02,6.67 -9.53,10.74 -2.51,3.98 -4.42,7.97 -5.63,11.69 -1.13,3.81 -2.34,9.09 -3.55,15.85zm210.24 158.52c4.94,-38.46 8.66,-80.91 11.26,-127.43 2.6,-46.43 4.24,-90.43 4.68,-131.93 20.36,0.35 37.94,0.52 52.67,0.52 17.15,0 33.61,-0.17 49.37,-0.52l-2.25 34.56c5.54,-6.24 10.31,-11.18 14.38,-14.73 4.07,-3.64 9.1,-7.19 15.07,-10.57 6.06,-3.46 12.39,-6.24 19.14,-8.49 6.76,-2.17 14.12,-3.9 22.18,-5.11 8.06,-1.3 16.46,-1.91 25.21,-1.91 12.13,0 23.99,1.3 35.6,3.9 11.52,2.6 21.22,6.33 29.02,11.18 7.71,4.76 14.2,10.74 19.49,17.93 5.2,7.19 8.66,14.9 10.39,23.13 1.65,8.23 2.51,16.8 2.51,25.56 0,6.41 -0.69,20.35 -2.08,41.67l-4.24 91.91c-0.87,18.19 -1.3,34.91 -1.3,50.33 -17.15,-0.35 -33.09,-0.52 -47.99,-0.52 -20.19,0 -38.55,0.17 -55.09,0.52 1.56,-15.42 3.29,-38.29 5.02,-68.69 1.73,-30.41 2.69,-51.8 2.69,-64.19 0,-19.06 -3.73,-32.31 -11.09,-39.85 -7.36,-7.54 -16.72,-11.26 -27.89,-11.26 -9.87,0 -19.14,3.2 -27.89,9.61 -8.75,6.5 -15.42,15.76 -20.19,28.07 -4.76,12.3 -8.14,32.48 -10.05,60.55 -1.99,28.06 -3.29,56.65 -3.98,85.76 -16.89,-0.35 -33.44,-0.52 -49.55,-0.52 -16.89,0 -35.26,0.17 -55.09,0.52zm355.68 -5.2c-2.17,-35.95 -4.76,-64.71 -7.63,-86.28 19.06,8.41 36.12,14.21 51.02,17.41 14.9,3.29 27.98,4.94 39.15,4.94 14.9,0 26.68,-2.17 35.43,-6.5 8.75,-4.33 13.17,-10.65 13.17,-19.15 0,-2.86 -0.43,-5.63 -1.3,-8.23 -0.87,-2.69 -2.43,-5.63 -4.85,-8.92 -2.43,-3.29 -5.8,-6.84 -10.22,-10.74l-48.16 -41.67c-11.26,-9.44 -19.15,-16.28 -23.56,-20.53 -9.01,-8.67 -16.11,-16.72 -21.14,-24.17 -5.02,-7.45 -8.66,-14.98 -11,-22.7 -2.34,-7.71 -3.46,-15.85 -3.46,-24.51 0,-10.31 1.82,-20.44 5.46,-30.32 3.64,-9.88 9.09,-19.15 16.46,-27.81 7.28,-8.57 16.89,-16.03 29.02,-22.26 12.04,-6.32 24.86,-10.57 38.63,-12.82 13.78,-2.34 27.89,-3.46 42.54,-3.46 28.67,0 59.85,3.29 93.64,9.87 0.43,11.69 1.04,22.35 1.73,32.05 0.69,9.7 2.34,26.77 4.85,51.11 -15.68,-6.24 -29.97,-10.57 -42.97,-12.99 -12.91,-2.43 -24.08,-3.64 -33.44,-3.64 -13.25,0 -24.34,2.43 -33.09,7.36 -8.75,4.94 -13.17,11 -13.17,18.28 0,3.38 0.69,6.67 2.08,9.87 1.3,3.2 3.9,7.02 7.62,11.35 3.72,4.24 8.67,9.01 14.81,14.21 6.15,5.11 15.76,12.82 28.93,22.95l18.36 14.47c5.46,4.42 11.35,9.7 17.67,15.94 6.24,6.33 11.69,12.48 16.28,18.54 4.68,6.15 8.14,11.69 10.65,16.8 2.43,5.02 4.33,10.14 5.46,15.33 1.21,5.2 1.82,10.74 1.82,16.63 0,15.25 -3.64,29.71 -10.92,43.49 -7.28,13.86 -17.67,25.2 -31.01,34.04 -13.43,8.92 -28.15,15.07 -44.18,18.62 -16.02,3.55 -32.92,5.37 -50.67,5.37 -27.46,0 -62.2,-3.98 -104.04,-11.95zm538.97 -71.2c-2.17,10.13 -6.32,34.56 -12.47,73.28 -19.67,3.98 -36.21,6.58 -49.64,7.88 -13.43,1.3 -26.94,1.99 -40.71,1.99 -20.19,0 -38.81,-1.39 -55.7,-4.16 -16.98,-2.77 -31.62,-7.8 -43.92,-14.9 -12.3,-7.02 -22.61,-15.85 -30.93,-26.42 -8.31,-10.57 -14.64,-23.13 -18.97,-37.68 -4.33,-14.56 -6.5,-29.54 -6.5,-44.87 0,-21.65 4.33,-42.88 13,-63.58 8.57,-20.7 19.75,-36.9 33.35,-48.51 13.69,-11.69 29.37,-20.01 47.12,-24.86 17.76,-4.94 36.04,-7.37 54.66,-7.37 19.23,0 37.68,2.25 55.18,6.76 17.59,4.42 32.4,12.3 44.61,23.39 12.21,11.18 20.87,23.74 26.07,37.77 5.11,14.04 7.71,29.19 7.71,45.39 0,9.7 -1.04,20.35 -3.12,32.22l-178.53 0.26c-0.17,2.69 -0.26,5.11 -0.26,7.36 0,18.19 6.59,31.62 19.67,40.28 13.08,8.57 29.02,12.91 47.9,12.91 11.18,0 24,-1.3 38.37,-3.9 14.3,-2.6 32.05,-7.02 53.1,-13.25zm-156.79 -82.12l84.03 0c0.17,-2.86 0.26,-5.28 0.26,-7.36 0,-8.75 -1.56,-16.28 -4.68,-22.52 -3.2,-6.24 -7.71,-10.74 -13.52,-13.6 -5.89,-2.86 -12.47,-4.33 -19.75,-4.33 -5.11,0 -9.96,0.78 -14.73,2.43 -4.76,1.56 -9.09,3.98 -12.91,7.1 -3.81,3.12 -7.02,6.67 -9.53,10.74 -2.51,3.98 -4.42,7.97 -5.63,11.69 -1.13,3.81 -2.34,9.09 -3.55,15.85zm212.32 158.52l4.5 -54.66 9.79 -189.88 2.77 -102.13c23.48,0.35 41.15,0.52 53.02,0.52 15.42,0 32.4,-0.17 51.02,-0.52l-5.72 77.96 -9.27 192.05 -1.99 76.66c-18.19,-0.17 -34.48,-0.26 -49.03,-0.26l-55.09 0.26z"/>
   <g style="clip-path:url(#id0)">
    <path class="fil1" d="M99.43 334.17c1.37,12.12 1.17,13.18 4.48,25.2 2.54,8.85 9.06,22.61 14.81,30.21 1.07,1.54 2.05,2.79 3.12,4.33 5.75,7.6 15.01,16.45 22.9,21.74 1.66,1.15 2.93,2.11 4.48,3.08 9.16,5.39 15.2,8.66 25.93,12.02 7.7,2.41 6.92,1.83 17.44,-1.92 6.14,-2.12 14.62,-6.35 20.08,-9.81 7.5,-4.91 10.13,-6.83 16.76,-13.08 0.88,-0.87 1.37,-0.96 2.15,-1.73 3.12,-3.08 9.65,-10.97 11.99,-14.43 6.43,-9.43 11.69,-18.95 14.81,-30.11 1.17,-3.94 2.14,-7.41 2.92,-11.74 1.27,-6.35 0.88,-8.66 1.66,-13.47 0.49,-3.27 0.1,-54.93 0.1,-59.65l-12.48 -1.93c-11.3,-1.83 -23.49,-6.06 -33.43,-10.58 -1.75,-0.77 -3.12,-1.54 -4.87,-2.41 -4.68,-2.31 -9.55,-5.58 -13.84,-8.08 -5.26,-3.08 -11.89,-8.37 -17.25,-11.93 -11.21,7.41 -12.67,9.33 -26.12,17.31 -8.96,5.39 -21.15,10.2 -31.09,12.99 -4,1.06 -7.89,1.93 -11.79,2.69 -3.8,0.77 -8.87,1.64 -12.87,1.93l0.1 59.36z"/>
    <path id="_1" class="fil2" d="M109.07 357.84c-3.12,-11.26 -2.93,-12.22 -4.19,-23.57l-0.09 -55.32c3.7,-0.39 8.38,-1.15 11.99,-1.83 3.7,-0.77 7.31,-1.54 11.01,-2.6 9.26,-2.6 20.66,-7.02 28.94,-12.03 12.67,-7.5 14.04,-9.33 24.46,-16.16 4.97,3.27 11.2,8.18 16.18,11.06 4,2.31 8.48,5.39 12.87,7.6 1.65,0.77 2.92,1.44 4.48,2.21 9.36,4.23 20.76,8.18 31.19,9.91l11.7 1.83c0,4.33 0.29,52.53 -0.1,55.61 -0.68,4.52 -0.39,6.64 -1.46,12.61 -0.78,4.04 -1.76,7.21 -2.73,10.97 -2.92,10.39 -7.89,19.24 -13.84,28.09 -2.24,3.17 -8.38,10.58 -11.3,13.47 -0.69,0.67 -1.07,0.77 -1.95,1.54 -6.14,5.87 -8.67,7.7 -15.69,12.22 -4.97,3.27 -12.96,7.21 -18.71,9.24 -9.75,3.46 -9.06,4.04 -16.28,1.73 -10.04,-3.08 -15.59,-6.16 -24.17,-11.16 -1.46,-0.87 -2.73,-1.83 -4.19,-2.89 -7.41,-4.91 -15.98,-13.18 -21.34,-20.3 -1.07,-1.44 -1.95,-2.6 -3.02,-4.04 -5.26,-7.02 -11.4,-19.91 -13.74,-28.19l0 0zm-23.39 -93.22l0.09 69.27c1.56,14.05 1.27,15.39 5.26,29.44 2.93,10.3 10.53,26.36 17.15,35.21 1.37,1.73 2.44,3.27 3.8,5 6.63,8.85 17.44,19.24 26.61,25.49 1.95,1.25 3.41,2.41 5.26,3.56 10.72,6.25 17.74,10 30.31,13.95 8.97,2.79 7.99,2.21 20.27,-2.12 7.21,-2.59 17.15,-7.5 23.49,-11.54 8.77,-5.68 11.8,-7.98 19.59,-15.3 1.07,-0.96 1.56,-1.16 2.44,-2.02 3.61,-3.56 11.31,-12.8 14.04,-16.83 7.41,-10.97 13.64,-22.13 17.35,-35.12 1.27,-4.62 2.44,-8.66 3.31,-13.76 1.46,-7.41 0.97,-10.01 1.85,-15.68 0.59,-3.85 0.2,-64.07 0.2,-69.56l-14.62 -2.21c-13.06,-2.21 -27.39,-7.12 -38.98,-12.41 -2.05,-0.86 -3.61,-1.73 -5.65,-2.79 -5.46,-2.69 -11.11,-6.54 -16.08,-9.43 -6.14,-3.66 -13.94,-9.81 -20.17,-13.95 -13.06,8.66 -14.72,10.87 -30.51,20.3 -10.52,6.16 -24.66,11.83 -36.35,15.01 -4.58,1.35 -9.07,2.31 -13.65,3.17 -4.48,0.87 -10.33,1.93 -15.01,2.31l0 0z"/>
   </g>
   <rect class="fil3" x="81.98" y="220.16" width="191.36" height="226.3"/>
   <path class="fil4" d="M162.08 365.06c-2.5,0 -4.89,-0.99 -6.65,-2.76l-20.13 -20.12c-2.17,-2.17 -2.17,-5.68 0,-7.84l0 0c2.17,-2.17 5.68,-2.17 7.84,0l18.94 18.94 50.1 -50.1c2.17,-2.17 5.68,-2.17 7.84,0l0 0c2.17,2.17 2.17,5.68 0,7.84l-51.28 51.28c-1.76,1.76 -4.16,2.76 -6.66,2.76z"/>
   <path class="fil5" d="M285.93 612.72l-207.41 0c-12.52,0 -22.77,-10.25 -22.77,-22.78l0 -506.55c0,-12.53 10.25,-22.78 22.77,-22.78l44.88 0c13.61,-2.55 23.9,-14.49 23.9,-28.83 0,-16.2 -13.14,-29.34 -29.34,-29.34l-31.83 0 -28.23 0c-32.75,0 -59.55,26.8 -59.55,59.55l0 549.36c0,32.75 26.8,59.55 59.55,59.55l248.64 0c32.75,0 59.55,-26.8 59.55,-59.55l0 -549.36c0,-32.75 -26.8,-59.55 -59.55,-59.55l-29.69 0 -31.83 0c-16.2,0 -29.34,13.14 -29.34,29.34 0,14.34 10.3,26.28 23.9,28.83l46.35 0c12.52,0 22.77,10.25 22.77,22.78l0 506.55c0,12.53 -10.25,22.78 -22.77,22.78z"/>
  </g>
 </g>
</svg>
