<svg width="2485" height="1003" viewBox="0 0 2485 1003" fill="none" xmlns="http://www.w3.org/2000/svg">
<g clip-path="url(#clip0_150_2)">
<path fill-rule="evenodd" clip-rule="evenodd" d="M1481.89 122.26H507.906C500.172 122.26 493.17 125.392 488.104 130.457C483.035 135.523 479.9 142.522 479.9 150.253V817.265C479.9 824.992 483.036 831.993 488.106 837.059C493.173 842.124 500.174 845.259 507.906 845.259H1481.89C1489.63 845.259 1496.63 842.126 1501.7 837.061C1506.77 831.995 1509.9 824.996 1509.9 817.265V150.253C1509.9 142.526 1506.76 135.526 1501.69 130.459C1496.63 125.394 1489.63 122.26 1481.89 122.26H1481.89Z" fill="white" stroke="#141C3A" stroke-width="7.99968" stroke-miterlimit="2.61313"/>
<path fill-rule="evenodd" clip-rule="evenodd" d="M1433.91 184.26H554.893C551.583 184.26 548.583 185.604 546.41 187.78C544.241 189.953 542.899 192.953 542.899 196.266V693.253C542.899 696.568 544.241 699.568 546.41 701.74C548.581 703.914 551.581 705.258 554.893 705.258H1433.91C1437.22 705.258 1440.22 703.914 1442.39 701.738C1444.56 699.566 1445.9 696.566 1445.9 693.252V196.266C1445.9 192.951 1444.56 189.951 1442.39 187.778C1440.22 185.604 1437.22 184.26 1433.91 184.26H1433.91Z" fill="#583AF1" stroke="#6E07F3" stroke-width="7.99968" stroke-miterlimit="2.61313"/>
<path fill-rule="evenodd" clip-rule="evenodd" d="M1069.25 845.259H921.551L911.579 974.259H1079.22L1069.25 845.259Z" fill="white" stroke="#141C3A" stroke-width="7.99968" stroke-miterlimit="2.61313"/>
<path fill-rule="evenodd" clip-rule="evenodd" d="M1139.9 1003.26H850.903C850.626 1003.26 850.377 1003.15 850.195 1002.97C850.012 1002.78 849.9 1002.53 849.9 1002.25V988.759C849.9 984.754 851.524 981.13 854.148 978.506C856.774 975.882 860.401 974.259 864.407 974.259H1126.39C1130.4 974.259 1134.03 975.882 1136.65 978.508C1139.28 981.132 1140.9 984.756 1140.9 988.76V1002.25C1140.9 1002.53 1140.79 1002.78 1140.61 1002.97C1140.43 1003.15 1140.18 1003.26 1139.9 1003.26L1139.9 1003.26Z" fill="white" stroke="#141C3A" stroke-width="7.99968" stroke-miterlimit="2.61313"/>
<path d="M995.401 799.26C1005.62 799.26 1013.9 790.977 1013.9 780.759C1013.9 770.542 1005.62 762.259 995.401 762.259C985.183 762.259 976.9 770.542 976.9 780.759C976.9 790.977 985.183 799.26 995.401 799.26Z" stroke="#141C3A" stroke-width="7.99968" stroke-miterlimit="2.61313"/>
<path fill-rule="evenodd" clip-rule="evenodd" d="M408.9 614.259H558.9C572.153 614.259 582.9 625.006 582.9 638.259V979.259C582.9 992.511 572.153 1003.26 558.9 1003.26H408.9C395.649 1003.26 384.9 992.511 384.9 979.259V638.26C384.9 625.007 395.649 614.26 408.9 614.26V614.259Z" fill="white" stroke="#141C3A" stroke-width="7.99968" stroke-miterlimit="2.61313"/>
<path fill-rule="evenodd" clip-rule="evenodd" d="M582.899 658.26H384.9V945.559H582.899V658.26Z" fill="#141C3A" stroke="#141C3A" stroke-width="7.99968" stroke-miterlimit="2.61313"/>
<path fill-rule="evenodd" clip-rule="evenodd" d="M440.901 632.259H527.901C530.11 632.259 531.901 634.05 531.901 636.259C531.901 638.467 530.111 640.258 527.902 640.258H440.902C438.694 640.258 436.902 638.467 436.902 636.258H436.901C436.902 634.049 438.694 632.258 440.902 632.258L440.901 632.259Z" fill="#141C3A"/>
<path fill-rule="evenodd" clip-rule="evenodd" d="M484.301 962.259C490.596 962.259 495.701 967.364 495.701 973.659C495.701 979.954 490.597 985.058 484.302 985.058C478.008 985.058 472.903 979.953 472.903 973.658H472.902C472.903 967.363 478.009 962.258 484.303 962.258L484.301 962.259Z" fill="#141C3A"/>
<path d="M440.9 816.259C449.185 816.259 455.9 809.544 455.9 801.259C455.9 792.975 449.185 786.259 440.9 786.259C432.616 786.259 425.9 792.975 425.9 801.259C425.9 809.544 432.616 816.259 440.9 816.259Z" fill="#583AF1" stroke="#6E07F3" stroke-width="7.99968" stroke-miterlimit="2.61313"/>
<path fill-rule="evenodd" clip-rule="evenodd" d="M479.901 775.259H541.9C544.109 775.259 545.901 777.05 545.901 779.259C545.901 781.468 544.11 783.259 541.901 783.259H479.902C477.694 783.259 475.902 781.468 475.902 779.259C475.902 777.05 477.694 775.259 479.903 775.259H479.901Z" fill="white"/>
<path fill-rule="evenodd" clip-rule="evenodd" d="M479.901 797.259H521.901C524.11 797.259 525.901 799.05 525.901 801.259C525.901 803.468 524.111 805.259 521.902 805.259H479.902C477.694 805.259 475.902 803.468 475.902 801.259C475.902 799.05 477.694 797.259 479.903 797.259H479.901Z" fill="white"/>
<path fill-rule="evenodd" clip-rule="evenodd" d="M479.901 819.259H501.901C504.11 819.259 505.901 821.051 505.901 823.26C505.901 825.469 504.11 827.26 501.901 827.26H479.901C477.693 827.26 475.901 825.469 475.901 823.26C475.901 821.051 477.693 819.259 479.902 819.259H479.901Z" fill="white"/>
<path d="M283.401 803.259C368.176 803.259 436.901 734.535 436.901 649.759C436.901 564.983 368.176 496.259 283.401 496.259C198.625 496.259 129.9 564.983 129.9 649.759C129.9 734.535 198.625 803.259 283.401 803.259Z" fill="#5BE9B9" stroke="#141C3A" stroke-width="7.99968" stroke-miterlimit="2.61313"/>
<path fill-rule="evenodd" clip-rule="evenodd" d="M1935.91 464.26H1251.89C1244.16 464.26 1237.16 467.394 1232.1 472.46C1227.03 477.527 1223.9 484.527 1223.9 492.259V933.26C1223.9 940.988 1227.03 947.988 1232.1 953.057C1237.16 958.124 1244.16 961.259 1251.89 961.259H1935.91C1943.64 961.259 1950.64 958.126 1955.7 953.059C1960.77 947.992 1963.9 940.992 1963.9 933.26V492.259C1963.9 484.532 1960.77 477.531 1955.7 472.462C1950.63 467.395 1943.64 464.26 1935.91 464.26H1935.91Z" fill="white" stroke="#141C3A" stroke-width="7.99968" stroke-miterlimit="2.61313"/>
<path fill-rule="evenodd" clip-rule="evenodd" d="M2013.91 961.259H1173.89C1173.62 961.259 1173.37 961.37 1173.19 961.55C1173.01 961.731 1172.9 961.983 1172.9 962.259V982.259C1172.9 988.058 1175.25 993.308 1179.05 997.108C1182.85 1000.91 1188.1 1003.26 1193.91 1003.26H1993.89C1999.69 1003.26 2004.94 1000.91 2008.75 997.108C2012.55 993.307 2014.9 988.058 2014.9 982.259V962.259C2014.9 961.983 2014.79 961.732 2014.6 961.551C2014.43 961.371 2014.18 961.259 2013.91 961.259Z" fill="white" stroke="#141C3A" stroke-width="7.99968" stroke-miterlimit="2.61313"/>
<path fill-rule="evenodd" clip-rule="evenodd" d="M1649.19 961.708H1537.21C1539.16 966.843 1542.43 971.324 1546.61 974.737C1551.95 979.096 1558.77 981.708 1566.19 981.708H1620.2C1627.63 981.708 1634.45 979.095 1639.78 974.736C1643.96 971.323 1647.24 966.842 1649.19 961.708H1649.19Z" fill="white" stroke="#141C3A" stroke-width="7.99968" stroke-miterlimit="2.61313"/>
<path fill-rule="evenodd" clip-rule="evenodd" d="M1260.9 507.259H1926.31C1930.72 507.259 1934.31 510.841 1934.31 515.259V911.108C1934.31 915.525 1930.72 919.108 1926.31 919.108H1260.9C1256.48 919.108 1252.9 915.525 1252.9 911.108V515.259C1252.9 510.841 1256.48 507.258 1260.9 507.258V507.259Z" fill="#5BE9B9"/>
<path d="M972.9 198.259C975.661 198.259 977.9 196.021 977.9 193.259C977.9 190.498 975.661 188.26 972.9 188.26C970.139 188.26 967.9 190.498 967.9 193.259C967.9 196.021 970.139 198.259 972.9 198.259Z" fill="#293347"/>
<path fill-rule="evenodd" clip-rule="evenodd" d="M1140.9 55.2598H694.9V490.262C694.9 495.786 697.138 500.785 700.758 504.403C704.379 508.024 709.383 510.26 714.91 510.26H1120.89C1126.42 510.26 1131.42 508.022 1135.04 504.402C1138.66 500.783 1140.9 495.784 1140.9 490.262V55.2598H1140.9Z" fill="#141C3A" stroke="#141C3A" stroke-width="7.99968" stroke-miterlimit="2.61313"/>
<path fill-rule="evenodd" clip-rule="evenodd" d="M1120.89 0.259277H714.91C709.384 0.259277 704.381 2.498 700.76 6.11816C697.14 9.73832 694.9 14.739 694.9 20.2628V47.259H1140.9V20.2628C1140.9 14.7409 1138.66 9.73928 1135.04 6.11912C1131.42 2.49896 1126.42 0.259277 1120.89 0.259277H1120.89Z" fill="white" stroke="#141C3A" stroke-width="7.99968" stroke-miterlimit="2.61313"/>
<path d="M729.899 33.2593C734.87 33.2593 738.899 29.2298 738.899 24.2593C738.899 19.2887 734.87 15.2593 729.899 15.2593C724.929 15.2593 720.899 19.2887 720.899 24.2593C720.899 29.2298 724.929 33.2593 729.899 33.2593Z" fill="#141C3A"/>
<path d="M759.899 33.2593C764.87 33.2593 768.899 29.2298 768.899 24.2593C768.899 19.2887 764.87 15.2593 759.899 15.2593C754.929 15.2593 750.899 19.2887 750.899 24.2593C750.899 29.2298 754.929 33.2593 759.899 33.2593Z" fill="#6E07F3"/>
<path d="M789.899 33.2593C794.87 33.2593 798.899 29.2298 798.899 24.2593C798.899 19.2887 794.87 15.2593 789.899 15.2593C784.929 15.2593 780.899 19.2887 780.899 24.2593C780.899 29.2298 784.929 33.2593 789.899 33.2593Z" fill="#5BE9B9"/>
<path fill-rule="evenodd" clip-rule="evenodd" d="M746.901 339.259H756.901C759.11 339.259 760.901 341.051 760.901 343.26C760.901 345.469 759.111 347.26 756.902 347.26H746.902C744.694 347.26 742.902 345.469 742.902 343.26H742.901C742.902 341.052 744.694 339.26 746.902 339.26L746.901 339.259Z" fill="#535B6B" fill-opacity="0.541176"/>
<path fill-rule="evenodd" clip-rule="evenodd" d="M746.901 139.26H756.901C759.11 139.261 760.901 141.052 760.901 143.26C760.901 145.469 759.111 147.26 756.902 147.26H746.902C744.694 147.26 742.902 145.47 742.902 143.261H742.901C742.902 141.053 744.694 139.262 746.902 139.262L746.901 139.26Z" fill="#535B6B" fill-opacity="0.541176"/>
<path fill-rule="evenodd" clip-rule="evenodd" d="M776.901 139.26H803.901C806.11 139.26 807.901 141.051 807.901 143.26C807.901 145.469 806.111 147.26 803.901 147.26H776.901C774.692 147.26 772.9 145.47 772.9 143.26C772.9 141.051 774.692 139.26 776.901 139.26Z" fill="#583AF1"/>
<path fill-rule="evenodd" clip-rule="evenodd" d="M821.901 139.26H848.901C851.11 139.26 852.901 141.051 852.901 143.26C852.901 145.469 851.111 147.26 848.901 147.26H821.901C819.692 147.26 817.9 145.47 817.9 143.26C817.9 141.051 819.691 139.26 821.901 139.26Z" fill="#5BE9B9"/>
<path fill-rule="evenodd" clip-rule="evenodd" d="M866.901 139.26H916.9C919.109 139.26 920.901 141.051 920.901 143.26C920.901 145.469 919.109 147.26 916.9 147.26H866.901C864.692 147.26 862.9 145.47 862.9 143.26C862.9 141.051 864.692 139.26 866.901 139.26Z" fill="#583AF1"/>
<path fill-rule="evenodd" clip-rule="evenodd" d="M934.9 139.26H1008.9C1011.11 139.26 1012.9 141.051 1012.9 143.26C1012.9 145.469 1011.11 147.26 1008.9 147.26H934.9C932.691 147.26 930.899 145.47 930.899 143.26C930.899 141.051 932.69 139.26 934.9 139.26Z" fill="#583AF1"/>
<path fill-rule="evenodd" clip-rule="evenodd" d="M746.901 179.26H756.901C759.11 179.26 760.901 181.051 760.901 183.26C760.901 185.469 759.111 187.26 756.902 187.26H746.902C744.694 187.26 742.902 185.47 742.902 183.261H742.901C742.902 181.053 744.694 179.262 746.902 179.262L746.901 179.26Z" fill="#535B6B" fill-opacity="0.541176"/>
<path fill-rule="evenodd" clip-rule="evenodd" d="M746.901 219.259H756.901C759.11 219.259 760.901 221.051 760.901 223.26C760.901 225.469 759.111 227.26 756.902 227.26H746.902C744.694 227.26 742.902 225.469 742.902 223.26H742.901C742.902 221.052 744.694 219.26 746.902 219.26L746.901 219.259Z" fill="#535B6B" fill-opacity="0.541176"/>
<path fill-rule="evenodd" clip-rule="evenodd" d="M746.901 259.26H756.901C759.11 259.261 760.901 261.052 760.901 263.26C760.901 265.469 759.111 267.26 756.902 267.26H746.902C744.694 267.26 742.902 265.47 742.902 263.261H742.901C742.902 261.053 744.694 259.262 746.902 259.262L746.901 259.26Z" fill="#535B6B" fill-opacity="0.541176"/>
<path fill-rule="evenodd" clip-rule="evenodd" d="M746.901 299.26H756.901C759.11 299.26 760.901 301.051 760.901 303.26C760.901 305.469 759.111 307.26 756.902 307.26H746.902C744.694 307.26 742.902 305.47 742.902 303.261H742.901C742.902 301.053 744.694 299.262 746.902 299.262L746.901 299.26Z" fill="#535B6B" fill-opacity="0.541176"/>
<path fill-rule="evenodd" clip-rule="evenodd" d="M746.901 379.26H756.901C759.11 379.261 760.901 381.052 760.901 383.26C760.901 385.469 759.111 387.26 756.902 387.26H746.902C744.694 387.26 742.902 385.47 742.902 383.261H742.901C742.902 381.053 744.694 379.262 746.902 379.262L746.901 379.26Z" fill="#535B6B" fill-opacity="0.541176"/>
<path fill-rule="evenodd" clip-rule="evenodd" d="M746.901 419.26H756.901C759.11 419.26 760.901 421.051 760.901 423.26C760.901 425.469 759.111 427.26 756.902 427.26H746.902C744.694 427.26 742.902 425.47 742.902 423.261H742.901C742.902 421.053 744.694 419.262 746.902 419.262L746.901 419.26Z" fill="#535B6B" fill-opacity="0.541176"/>
<path fill-rule="evenodd" clip-rule="evenodd" d="M776.901 179.26H838.9C841.11 179.26 842.901 181.051 842.901 183.26C842.901 185.469 841.11 187.26 838.901 187.26H776.901C774.693 187.26 772.901 185.47 772.901 183.261H772.9C772.901 181.053 774.693 179.262 776.901 179.262V179.26Z" fill="#583AF1"/>
<path fill-rule="evenodd" clip-rule="evenodd" d="M856.9 179.26H968.9C971.109 179.26 972.9 181.051 972.9 183.26C972.9 185.469 971.11 187.26 968.901 187.26H856.901C854.693 187.26 852.901 185.47 852.901 183.261H852.9C852.901 181.053 854.693 179.262 856.901 179.262L856.9 179.26Z" fill="#5BE9B9"/>
<path fill-rule="evenodd" clip-rule="evenodd" d="M986.901 179.26H1028.9C1031.11 179.26 1032.9 181.051 1032.9 183.26C1032.9 185.469 1031.11 187.26 1028.9 187.26H986.902C984.694 187.26 982.902 185.47 982.902 183.261H982.901C982.902 181.053 984.694 179.262 986.902 179.262L986.901 179.26Z" fill="#583AF1"/>
<path fill-rule="evenodd" clip-rule="evenodd" d="M776.901 219.259H818.901C821.11 219.259 822.901 221.051 822.901 223.26C822.901 225.469 821.111 227.26 818.902 227.26H776.902C774.694 227.26 772.902 225.469 772.902 223.26H772.901C772.902 221.052 774.694 219.26 776.902 219.26L776.901 219.259Z" fill="#5BE9B9"/>
<path fill-rule="evenodd" clip-rule="evenodd" d="M836.901 219.259H878.901C881.11 219.259 882.901 221.051 882.901 223.26C882.901 225.469 881.111 227.26 878.902 227.26H836.902C834.694 227.26 832.902 225.469 832.902 223.26H832.901C832.902 221.052 834.694 219.26 836.902 219.26L836.901 219.259Z" fill="#583AF1"/>
<path fill-rule="evenodd" clip-rule="evenodd" d="M896.901 219.259H918.901C921.11 219.259 922.901 221.051 922.901 223.26C922.901 225.469 921.111 227.26 918.902 227.26H896.902C894.694 227.26 892.902 225.469 892.902 223.26H892.901C892.902 221.052 894.694 219.26 896.902 219.26L896.901 219.259Z" fill="#583AF1"/>
<path fill-rule="evenodd" clip-rule="evenodd" d="M776.901 259.26H868.9C871.11 259.261 872.901 261.052 872.901 263.26C872.901 265.469 871.11 267.26 868.901 267.26H776.901C774.693 267.26 772.901 265.47 772.901 263.261H772.9C772.901 261.053 774.693 259.262 776.901 259.262V259.26Z" fill="#583AF1"/>
<path fill-rule="evenodd" clip-rule="evenodd" d="M886.9 259.26H948.899C951.108 259.261 952.9 261.052 952.9 263.26C952.9 265.469 951.109 267.26 948.9 267.26H886.9C884.692 267.26 882.9 265.47 882.9 263.261H882.899C882.9 261.053 884.692 259.262 886.9 259.262V259.26Z" fill="#583AF1"/>
<path fill-rule="evenodd" clip-rule="evenodd" d="M776.901 299.26H868.9C871.11 299.26 872.901 301.051 872.901 303.26C872.901 305.469 871.11 307.26 868.901 307.26H776.901C774.693 307.26 772.901 305.47 772.901 303.261H772.9C772.901 301.053 774.693 299.262 776.901 299.262V299.26Z" fill="#583AF1"/>
<path fill-rule="evenodd" clip-rule="evenodd" d="M886.9 299.26H1008.9C1011.11 299.26 1012.9 301.051 1012.9 303.26C1012.9 305.469 1011.11 307.26 1008.9 307.26H886.9C884.692 307.26 882.9 305.47 882.9 303.261H882.899C882.9 301.053 884.692 299.262 886.9 299.262V299.26Z" fill="#5BE9B9"/>
<path fill-rule="evenodd" clip-rule="evenodd" d="M776.901 339.259H838.9C841.11 339.259 842.901 341.051 842.901 343.26C842.901 345.469 841.11 347.26 838.901 347.26H776.901C774.693 347.26 772.901 345.469 772.901 343.26H772.9C772.901 341.052 774.693 339.26 776.901 339.26V339.259Z" fill="#583AF1"/>
<path fill-rule="evenodd" clip-rule="evenodd" d="M856.9 339.259H918.899C921.108 339.259 922.9 341.051 922.9 343.26C922.9 345.469 921.109 347.26 918.9 347.26H856.9C854.692 347.26 852.9 345.469 852.9 343.26H852.899C852.9 341.052 854.692 339.26 856.9 339.26V339.259Z" fill="#5BE9B9"/>
<path fill-rule="evenodd" clip-rule="evenodd" d="M936.9 339.259H968.899C971.108 339.259 972.9 341.051 972.9 343.26C972.9 345.469 971.109 347.26 968.9 347.26H936.9C934.692 347.26 932.9 345.469 932.9 343.26C932.9 341.052 934.692 339.26 936.901 339.26L936.9 339.259Z" fill="#583AF1"/>
<path fill-rule="evenodd" clip-rule="evenodd" d="M776.901 379.26H898.9C901.11 379.261 902.901 381.052 902.901 383.26C902.901 385.469 901.11 387.26 898.901 387.26H776.901C774.693 387.26 772.901 385.47 772.901 383.261H772.9C772.901 381.053 774.693 379.262 776.901 379.262V379.26Z" fill="#583AF1"/>
<path fill-rule="evenodd" clip-rule="evenodd" d="M776.901 419.26H828.901C831.11 419.26 832.901 421.051 832.901 423.26C832.901 425.469 831.111 427.26 828.902 427.26H776.902C774.694 427.26 772.902 425.47 772.902 423.261H772.901C772.902 421.053 774.694 419.262 776.902 419.262L776.901 419.26Z" fill="#5BE9B9"/>
<path fill-rule="evenodd" clip-rule="evenodd" d="M2137.9 361.26H1589.9V751.256C1589.9 758.991 1593.03 765.991 1598.1 771.059C1603.17 776.126 1610.17 779.26 1617.91 779.26H2109.89C2117.63 779.26 2124.63 776.126 2129.7 771.061C2134.77 765.993 2137.9 758.992 2137.9 751.257V361.261L2137.9 361.26Z" fill="white" stroke="#141C3A" stroke-width="7.99968" stroke-miterlimit="2.61313"/>
<path fill-rule="evenodd" clip-rule="evenodd" d="M2109.89 311.26H1617.91C1610.17 311.26 1603.17 314.392 1598.1 319.455C1593.03 324.521 1589.9 331.522 1589.9 339.252V369.259H2137.9V339.252C2137.9 331.522 2134.76 324.523 2129.7 319.457C2124.63 314.392 2117.62 311.26 2109.89 311.26Z" fill="#141C3A" stroke="#141C3A" stroke-width="7.99968" stroke-miterlimit="2.61313"/>
<path d="M1632.9 349.26C1637.87 349.26 1641.9 345.23 1641.9 340.26C1641.9 335.289 1637.87 331.26 1632.9 331.26C1627.93 331.26 1623.9 335.289 1623.9 340.26C1623.9 345.23 1627.93 349.26 1632.9 349.26Z" fill="white"/>
<path d="M1662.9 349.26C1667.87 349.26 1671.9 345.23 1671.9 340.26C1671.9 335.289 1667.87 331.26 1662.9 331.26C1657.93 331.26 1653.9 335.289 1653.9 340.26C1653.9 345.23 1657.93 349.26 1662.9 349.26Z" fill="#583AF1"/>
<path d="M1692.9 349.26C1697.87 349.26 1701.9 345.23 1701.9 340.26C1701.9 335.289 1697.87 331.26 1692.9 331.26C1687.93 331.26 1683.9 335.289 1683.9 340.26C1683.9 345.23 1687.93 349.26 1692.9 349.26Z" fill="#5BE9B9"/>
<path d="M1928.9 670.258C1984.13 670.258 2028.9 625.487 2028.9 570.259C2028.9 515.031 1984.13 470.26 1928.9 470.26C1873.67 470.26 1828.9 515.031 1828.9 570.259C1828.9 625.487 1873.67 670.258 1928.9 670.258Z" stroke="#583AF1" stroke-width="9" stroke-miterlimit="2.61313"/>
<path fill-rule="evenodd" clip-rule="evenodd" d="M1941.9 458.26H1917.9V482.26H1941.9V458.26Z" fill="#FFFFFE" stroke="#5BE9B9" stroke-width="7.99968" stroke-miterlimit="2.61313"/>
<path fill-rule="evenodd" clip-rule="evenodd" d="M1940.9 658.26H1916.9V682.26H1940.9V658.26Z" fill="#FFFFFE" stroke="#5BE9B9" stroke-width="7.99968" stroke-miterlimit="2.61313"/>
<path fill-rule="evenodd" clip-rule="evenodd" d="M1840.9 559.259H1816.9V583.259H1840.9V559.259Z" fill="#FFFFFE" stroke="#5BE9B9" stroke-width="7.99968" stroke-miterlimit="2.61313"/>
<path d="M2028.9 480.259V555.259" stroke="#141C3A" stroke-width="7.99968" stroke-miterlimit="2.61313" stroke-linecap="square"/>
<path d="M2028.9 585.259V660.259" stroke="#141C3A" stroke-width="7.99968" stroke-miterlimit="2.61313" stroke-linecap="square"/>
<path d="M2028.9 489.259C2035.53 489.259 2040.9 483.887 2040.9 477.259C2040.9 470.632 2035.53 465.259 2028.9 465.259C2022.27 465.259 2016.9 470.632 2016.9 477.259C2016.9 483.887 2022.27 489.259 2028.9 489.259Z" fill="#141C3A"/>
<path d="M2028.9 679.26C2035.53 679.26 2040.9 673.887 2040.9 667.26C2040.9 660.632 2035.53 655.26 2028.9 655.26C2022.27 655.26 2016.9 660.632 2016.9 667.26C2016.9 673.887 2022.27 679.26 2028.9 679.26Z" fill="#141C3A"/>
<path fill-rule="evenodd" clip-rule="evenodd" d="M2039.9 559.259H2015.9V583.259H2039.9V559.259Z" fill="#FFFFFE" stroke="#5BE9B9" stroke-width="7.99968" stroke-miterlimit="2.61313"/>
<path fill-rule="evenodd" clip-rule="evenodd" d="M1695.9 445.26H1741.9C1748.53 445.26 1753.9 450.634 1753.9 457.26V503.26C1753.9 509.886 1748.53 515.26 1741.9 515.26H1695.9C1689.27 515.26 1683.9 509.886 1683.9 503.26V457.26C1683.9 450.634 1689.27 445.26 1695.9 445.26Z" fill="#141C3A"/>
<path fill-rule="evenodd" clip-rule="evenodd" d="M1695.9 535.259H1741.9C1748.53 535.259 1753.9 540.633 1753.9 547.259V593.259C1753.9 599.885 1748.53 605.259 1741.9 605.259H1695.9C1689.27 605.259 1683.9 599.885 1683.9 593.259V547.259C1683.9 540.633 1689.27 535.259 1695.9 535.259Z" fill="#5BE9B9"/>
<path fill-rule="evenodd" clip-rule="evenodd" d="M1695.9 625.259H1741.9C1748.53 625.259 1753.9 630.633 1753.9 637.259V683.259C1753.9 689.885 1748.53 695.259 1741.9 695.259H1695.9C1689.27 695.259 1683.9 689.885 1683.9 683.259V637.259C1683.9 630.633 1689.27 625.259 1695.9 625.259Z" fill="#583AF1"/>
<path d="M2424.9 967.26C2458.04 967.26 2484.9 940.397 2484.9 907.26C2484.9 874.122 2458.04 847.26 2424.9 847.26C2391.76 847.26 2364.9 874.122 2364.9 907.26C2364.9 940.397 2391.76 967.26 2424.9 967.26Z" fill="white" stroke="#141C3A" stroke-width="7.99968" stroke-miterlimit="2.61313"/>
<path d="M2424.9 942.259C2444.23 942.259 2459.9 926.589 2459.9 907.259C2459.9 887.93 2444.23 872.26 2424.9 872.26C2405.57 872.26 2389.9 887.93 2389.9 907.259C2389.9 926.589 2405.57 942.259 2424.9 942.259Z" fill="white" stroke="#141C3A" stroke-width="7.99968" stroke-miterlimit="2.61313"/>
<path d="M2344.9 836.259C2355.95 836.259 2364.9 827.305 2364.9 816.259C2364.9 805.214 2355.95 796.26 2344.9 796.26C2333.85 796.26 2324.9 805.214 2324.9 816.259C2324.9 827.305 2333.85 836.259 2344.9 836.259Z" fill="#FFFFFE" stroke="#141C3A" stroke-width="7.99968" stroke-miterlimit="2.61313"/>
<path fill-rule="evenodd" clip-rule="evenodd" d="M2426.83 811.259H2256.9C2255.79 811.259 2254.8 811.707 2254.07 812.43C2253.35 813.154 2252.9 814.154 2252.9 815.258V983.258C2252.9 988.781 2255.14 993.781 2258.76 997.4C2262.38 1001.02 2267.38 1003.26 2272.9 1003.26H2410.83C2416.35 1003.26 2421.35 1001.02 2424.97 997.4C2428.59 993.781 2430.83 988.781 2430.83 983.258V815.258C2430.83 814.153 2430.38 813.153 2429.66 812.43C2428.93 811.706 2427.93 811.259 2426.83 811.259H2426.83Z" fill="white" stroke="#141C3A" stroke-width="7.99968" stroke-miterlimit="2.61313"/>
<path fill-rule="evenodd" clip-rule="evenodd" d="M2381.9 865.259H2345.9C2343.69 865.259 2341.69 866.154 2340.24 867.602C2338.79 869.05 2337.9 871.049 2337.9 873.259V921.259C2337.9 923.468 2338.79 925.469 2340.24 926.917C2341.69 928.364 2343.69 929.26 2345.9 929.26H2381.9C2384.11 929.26 2386.11 928.364 2387.56 926.917C2389 925.469 2389.9 923.469 2389.9 921.259V873.259C2389.9 871.05 2389 869.05 2387.56 867.602C2386.11 866.154 2384.11 865.259 2381.9 865.259Z" fill="#5BE9B9" stroke="#141C3A" stroke-width="7.99968" stroke-miterlimit="2.61313"/>
<path d="M2363.4 812.759V858.259" stroke="#141C3A" stroke-width="7.99968" stroke-miterlimit="2.61313" stroke-linecap="square"/>
<path fill-rule="evenodd" clip-rule="evenodd" d="M2138.9 948.459C2122.66 948.459 2107.96 955.041 2097.32 965.681C2087.61 975.397 2081.27 988.496 2080.25 1003.06H2197.55C2196.52 988.496 2190.19 975.397 2180.48 965.681C2169.84 955.041 2155.14 948.459 2138.9 948.459Z" fill="white" stroke="#141C3A" stroke-width="8.4" stroke-miterlimit="2.61313"/>
<path fill-rule="evenodd" clip-rule="evenodd" d="M2138.9 949.259C2141.11 949.259 2142.9 951.05 2142.9 953.259V958.26C2142.9 960.468 2141.11 962.259 2138.9 962.259C2136.69 962.259 2134.9 960.468 2134.9 958.259V953.259C2134.9 951.05 2136.69 949.259 2138.9 949.259Z" fill="#141C3A"/>
<path fill-rule="evenodd" clip-rule="evenodd" d="M300.901 885.259H58.901C42.6079 885.259 27.8585 891.863 17.1814 902.54C6.50423 913.217 -0.0996094 927.968 -0.0996094 944.26C-0.0996094 960.552 6.50423 975.302 17.1814 985.98C27.8585 996.657 42.6089 1003.26 58.901 1003.26H300.901C302.558 1003.26 304.057 1002.59 305.143 1001.5C306.229 1000.42 306.901 998.917 306.901 997.261V987.974C306.901 985.875 306.09 983.955 304.755 982.522C303.421 981.088 301.562 980.143 299.468 979.994C285.625 979.009 275.335 975.495 268.436 969.785C261.167 963.768 257.398 955.306 257.398 944.26C257.398 933.199 261.175 924.652 268.528 918.491C275.477 912.668 285.852 908.97 299.85 907.712C301.852 907.474 303.612 906.506 304.871 905.092C306.137 903.673 306.9 901.803 306.9 899.769V891.259C306.9 889.602 306.228 888.103 305.142 887.017C304.056 885.931 302.557 885.259 300.9 885.259H300.901Z" fill="#583AF1" stroke="#141C3A" stroke-width="7.99968" stroke-miterlimit="2.61313"/>
<path fill-rule="evenodd" clip-rule="evenodd" d="M288.686 908.259H57.9004C47.9596 908.259 38.9596 912.288 32.4441 918.803C25.9295 925.317 21.9004 934.317 21.9004 944.259C21.9004 954.201 25.9305 963.2 32.4441 969.715C38.9586 976.23 47.9586 980.259 57.9004 980.259C166.796 980.259 244.229 980.467 290.197 980.882C282.152 978.71 272.923 975.63 266.371 968.9C261.107 963.495 257.399 955.797 257.399 944.259C257.399 932.612 261.178 924.886 266.52 919.499C272.651 913.315 281.077 910.301 288.687 908.259H288.686Z" fill="white" stroke="#141C3A" stroke-width="7.99968" stroke-miterlimit="2.61313"/>
<path fill-rule="evenodd" clip-rule="evenodd" d="M53.8258 953.259H255.975C258.143 953.259 259.9 955.049 259.9 957.259C259.9 959.468 258.143 961.26 255.975 961.26H53.8258C51.6582 961.26 49.9004 959.469 49.9004 957.259C49.9004 955.05 51.6582 953.259 53.8258 953.259Z" fill="#141C3A"/>
<path fill-rule="evenodd" clip-rule="evenodd" d="M53.8258 927.259H255.975C258.143 927.259 259.9 929.05 259.9 931.26C259.9 933.469 258.143 935.26 255.975 935.26H53.8258C51.6582 935.26 49.9004 933.469 49.9004 931.26C49.9004 929.051 51.6582 927.259 53.8258 927.259Z" fill="#141C3A"/>
<path d="M246.055 685.616C241.148 681.253 236.24 676.89 231.333 672.527C223.513 665.581 215.714 658.614 207.893 651.669C206.1 650.089 204.307 648.486 202.537 646.906C202.537 648.998 202.537 651.112 202.537 653.205C207.444 648.843 212.352 644.48 217.259 640.116C225.079 633.171 232.878 626.203 240.7 619.258C242.492 617.678 244.285 616.075 246.055 614.495C247.804 612.937 247.782 609.754 246.055 608.195C244.196 606.482 241.596 606.526 239.714 608.195C234.806 612.559 229.899 616.921 224.991 621.284C217.171 628.23 209.372 635.197 201.551 642.142C199.758 643.722 197.965 645.325 196.195 646.906C194.469 648.442 194.469 651.669 196.195 653.205C201.102 657.568 206.01 661.931 210.918 666.295C218.738 673.24 226.537 680.207 234.358 687.153C236.15 688.733 237.943 690.336 239.714 691.916C241.462 693.474 244.352 693.764 246.055 691.916C247.624 690.225 247.915 687.286 246.055 685.617V685.616Z" fill="#141C3A"/>
<path d="M320.786 614.505C325.694 618.867 330.601 623.23 335.509 627.594C343.329 634.539 351.128 641.507 358.949 648.451C360.741 650.032 362.535 651.635 364.305 653.215C364.305 651.122 364.305 649.008 364.305 646.915C359.397 651.278 354.49 655.641 349.582 660.004C341.762 666.95 333.963 673.917 326.142 680.862C324.35 682.442 322.556 684.045 320.786 685.626C319.038 687.184 319.06 690.367 320.786 691.925C322.646 693.639 325.245 693.594 327.128 691.925C332.036 687.562 336.943 683.2 341.851 678.836C349.671 671.891 357.47 664.923 365.291 657.978C367.083 656.398 368.876 654.795 370.647 653.215C372.373 651.679 372.373 648.451 370.647 646.915C365.739 642.552 360.832 638.189 355.924 633.826C348.104 626.88 340.305 619.914 332.484 612.968C330.692 611.388 328.898 609.785 327.128 608.204C325.38 606.646 322.489 606.356 320.786 608.204C319.218 609.896 318.927 612.834 320.786 614.504V614.505Z" fill="#141C3A"/>
<path d="M267.438 711.831C268.783 707.824 270.105 703.817 271.449 699.789C274.653 690.151 277.858 680.535 281.062 670.895C284.917 659.275 288.771 647.678 292.648 636.058C295.987 626.018 299.325 615.979 302.664 605.94C304.255 601.065 306.048 596.212 307.527 591.27C307.55 591.204 307.572 591.136 307.594 591.069C308.333 588.865 306.742 586.105 304.457 585.593C301.991 585.037 299.729 586.328 298.944 588.71C297.599 592.717 296.277 596.724 294.933 600.752C291.729 610.391 288.525 620.006 285.32 629.646C281.466 641.266 277.611 652.863 273.735 664.483C270.396 674.523 267.057 684.562 263.718 694.601C262.127 699.454 260.334 704.307 258.856 709.248C258.834 709.315 258.811 709.382 258.789 709.449C258.049 711.653 259.64 714.413 261.926 714.925C264.391 715.481 266.654 714.19 267.438 711.83V711.831Z" fill="#141C3A"/>
</g>
<defs>
<clipPath id="clip0_150_2">
<rect width="2484.96" height="1003.01" fill="white"/>
</clipPath>
</defs>
</svg>
